# This file uses meters as units for non-parametric coordinates.

g default
v 0.000000 0.000000 100.000000
v 100.000000 0.000000 100.000000
v 0.000000 200.000000 100.000000
v 100.000000 200.000000 100.000000
v 0.000000 200.000000 0.000000
v 100.000000 200.000000 0.000000
v 0.000000 0.000000 0.000000
v 100.000000 0.000000 0.000000
vt 0.000000 -0.003906
vt 1.000000 -0.003906
vt 1.000000 1.000000
vt 0.000000 1.000000
vt 0.000000 -0.003906
vt 1.000000 -0.003906
vt 1.000000 1.000000
vt 0.000000 1.000000
vt 0.000000 -0.003906
vt 1.000000 -0.003906
vt 1.000000 1.000000
vt 0.000000 1.000000
vt 0.000000 -0.003906
vt 1.000000 -0.003906
vt 1.000000 1.000000
vt 0.000000 1.000000
vt 0.000000 -0.003906
vt 1.000000 -0.003906
vt 1.000000 1.000000
vt 0.000000 1.000000
vt 1.000000 1.000000
vt 0.000000 1.000000
vt 0.000000 -0.003906
vt 1.000000 -0.003906
vn 0.000000 0.000000 1.000000
vn 0.000000 0.000000 1.000000
vn 0.000000 0.000000 1.000000
vn 0.000000 0.000000 1.000000
vn 0.000000 1.000000 0.000000
vn 0.000000 1.000000 0.000000
vn 0.000000 1.000000 0.000000
vn 0.000000 1.000000 0.000000
vn 0.000000 0.000000 -1.000000
vn 0.000000 0.000000 -1.000000
vn 0.000000 0.000000 -1.000000
vn 0.000000 0.000000 -1.000000
vn 0.000000 -1.000000 0.000000
vn 0.000000 -1.000000 0.000000
vn 0.000000 -1.000000 0.000000
vn 0.000000 -1.000000 0.000000
vn 1.000000 0.000000 0.000000
vn 1.000000 0.000000 0.000000
vn 1.000000 0.000000 0.000000
vn 1.000000 0.000000 0.000000
vn -1.000000 0.000000 0.000000
vn -1.000000 0.000000 0.000000
vn -1.000000 0.000000 0.000000
vn -1.000000 0.000000 0.000000
s off
g TREE_ROOT TREE_01
f 1/17/1 2/18/2 4/19/3 3/20/4
f 3/9/5 4/10/6 6/11/7 5/12/8
f 5/21/9 6/22/10 8/23/11 7/24/12
f 7/13/13 8/14/14 2/15/15 1/16/16
f 2/1/17 8/2/18 6/3/19 4/4/20
f 7/5/21 1/6/22 3/7/23 5/8/24
g default
v 0.000000 200.000000 200.000000
v 100.000000 200.000000 200.000000
v 0.000000 300.000000 200.000000
v 100.000000 300.000000 200.000000
v -100.000000 300.000000 100.000000
v 0.000000 300.000000 100.000000
v 100.000000 300.000000 100.000000
v 200.000000 300.000000 100.000000
v -100.000000 300.000000 0.000000
v 0.000000 300.000000 0.000000
v 100.000000 300.000000 0.000000
v 200.000000 300.000000 0.000000
v 0.000000 300.000000 -100.000000
v 100.000000 300.000000 -100.000000
v 0.000000 200.000000 -100.000000
v 100.000000 200.000000 -100.000000
v -100.000000 200.000000 0.000000
v 0.000000 200.000000 0.000000
v 100.000000 200.000000 0.000000
v 200.000000 200.000000 0.000000
v -100.000000 200.000000 100.000000
v 0.000000 200.000000 100.000000
v 100.000000 200.000000 100.000000
v 200.000000 200.000000 100.000000
v -0.000031 400.000000 100.000000
v 100.000092 400.000000 100.000000
v 100.000092 400.000000 0.000000
v -0.000031 400.000000 0.000000
vt 0.002001 0.002001
vt 0.997999 0.002001
vt 0.997999 0.997999
vt 0.002001 0.997999
vt 0.002001 0.002001
vt 0.997999 0.002001
vt 0.997999 0.997999
vt 0.002001 0.997999
vt 0.002001 0.002001
vt 0.997999 0.002001
vt 0.997999 0.997999
vt 0.002001 0.997999
vt 0.002001 0.002001
vt 0.997999 0.002001
vt 0.997999 0.997999
vt 0.002001 0.997999
vt 0.997999 0.997999
vt 0.002001 0.997999
vt 0.002001 0.002001
vt 0.997999 0.002001
vt 0.997999 0.997999
vt 0.002001 0.997999
vt 0.002001 0.002001
vt 0.997999 0.002001
vt 0.997999 0.997999
vt 0.002001 0.997999
vt 0.002001 0.002001
vt 0.997999 0.002001
vt 0.997999 0.997999
vt 0.002001 0.997999
vt 0.002001 0.002001
vt 0.997999 0.002001
vt 0.002001 0.002001
vt 0.997999 0.002001
vt 0.997999 0.997999
vt 0.002001 0.997999
vt 0.002001 0.002001
vt 0.997999 0.002001
vt 0.997999 0.997999
vt 0.002001 0.997999
vt 0.002001 0.002002
vt 0.997999 0.002002
vt 0.997999 0.997998
vt 0.002001 0.997998
vt 0.002001 0.002001
vt 0.997999 0.002001
vt 0.997999 0.997999
vt 0.002001 0.997999
vt 0.002001 0.002001
vt 0.997999 0.002001
vt 0.997999 0.997999
vt 0.002001 0.997999
vt 0.002001 -0.993996
vt 0.997999 -0.993996
vt 0.997999 0.002001
vt 0.002001 0.002001
vt 0.997999 0.997999
vt 0.002001 0.997999
vt 1.993996 0.002001
vt 1.993996 0.997999
vt 0.997999 1.993996
vt 0.002001 1.993996
vt -0.993996 0.002001
vt -0.993996 0.997999
vt 0.002001 0.002001
vt 0.997999 0.002001
vt 0.997999 0.997999
vt 0.002001 0.997999
vt 0.997999 0.997999
vt 0.002001 0.997999
vt 0.002001 0.002001
vt 0.997999 0.002001
vt 0.002001 0.002001
vt 0.997999 0.002001
vt 0.997999 0.997999
vt 0.002001 0.997999
vt 0.002001 0.002001
vt 0.997999 0.002001
vt 0.997999 0.997999
vt 0.002001 0.997999
vt 0.997999 0.997999
vt 0.002001 0.997999
vt 0.002001 0.002001
vt 0.997999 0.002001
vt 0.997999 0.997999
vt 0.002001 0.997999
vt 0.002001 0.002001
vt 0.997999 0.002001
vt 0.997999 0.997999
vt 0.002001 0.997999
vt 0.002001 0.002001
vt 0.997999 0.002001
vt 0.997999 0.997999
vt 0.002001 0.997999
vt 0.002001 0.002001
vt 0.997999 0.002001
vn 0.000000 0.000000 1.000000
vn 0.000000 0.000000 1.000000
vn 0.000000 0.000000 1.000000
vn 0.000000 0.000000 1.000000
vn 0.000000 1.000000 0.000000
vn 0.000000 1.000000 0.000000
vn 0.000000 1.000000 0.000000
vn 0.000000 1.000000 0.000000
vn 0.000000 1.000000 0.000000
vn 0.000000 1.000000 0.000000
vn 0.000000 1.000000 0.000000
vn 0.000000 1.000000 0.000000
vn 0.000000 1.000000 0.000000
vn 0.000000 1.000000 0.000000
vn 0.000000 1.000000 0.000000
vn 0.000000 1.000000 0.000000
vn 0.000000 1.000000 0.000000
vn 0.000000 1.000000 0.000000
vn 0.000000 1.000000 0.000000
vn 0.000000 1.000000 0.000000
vn 0.000000 1.000000 0.000000
vn 0.000000 1.000000 0.000000
vn 0.000000 1.000000 0.000000
vn 0.000000 1.000000 0.000000
vn 0.000000 0.000000 -1.000000
vn 0.000000 0.000000 -1.000000
vn 0.000000 0.000000 -1.000000
vn 0.000000 0.000000 -1.000000
vn 0.000000 -1.000000 0.000000
vn 0.000000 -1.000000 0.000000
vn 0.000000 -1.000000 0.000000
vn 0.000000 -1.000000 0.000000
vn 0.000000 -1.000000 0.000000
vn 0.000000 -1.000000 0.000000
vn 0.000000 -1.000000 0.000000
vn 0.000000 -1.000000 0.000000
vn 0.000000 -1.000000 0.000000
vn 0.000000 -1.000000 0.000000
vn 0.000000 -1.000000 0.000000
vn 0.000000 -1.000000 0.000000
vn 1.000000 0.000000 0.000000
vn 1.000000 0.000000 0.000000
vn 1.000000 0.000000 0.000000
vn 1.000000 0.000000 0.000000
vn -1.000000 0.000000 0.000000
vn -1.000000 0.000000 0.000000
vn -1.000000 0.000000 0.000000
vn -1.000000 0.000000 0.000000
vn 0.000000 0.000000 1.000000
vn 0.000000 0.000000 1.000000
vn 0.000000 0.000000 1.000000
vn 0.000000 0.000000 1.000000
vn 1.000000 -0.000001 0.000000
vn 1.000000 -0.000001 0.000000
vn 1.000000 -0.000001 0.000000
vn 1.000000 -0.000001 0.000000
vn 0.000000 0.000000 -1.000000
vn 0.000000 0.000000 -1.000000
vn 0.000000 0.000000 -1.000000
vn 0.000000 0.000000 -1.000000
vn -1.000000 -0.000000 0.000000
vn -1.000000 -0.000000 0.000000
vn -1.000000 -0.000000 0.000000
vn -1.000000 -0.000000 0.000000
vn 1.000000 0.000000 0.000000
vn 1.000000 0.000000 0.000000
vn 1.000000 0.000000 0.000000
vn 1.000000 0.000000 0.000000
vn 0.000000 0.000000 1.000000
vn 0.000000 0.000000 1.000000
vn 0.000000 0.000000 1.000000
vn 0.000000 0.000000 1.000000
vn 0.000000 0.000000 -1.000000
vn 0.000000 0.000000 -1.000000
vn 0.000000 0.000000 -1.000000
vn 0.000000 0.000000 -1.000000
vn 1.000000 0.000000 0.000000
vn 1.000000 0.000000 0.000000
vn 1.000000 0.000000 0.000000
vn 1.000000 0.000000 0.000000
vn -1.000000 0.000000 0.000000
vn -1.000000 0.000000 0.000000
vn -1.000000 0.000000 0.000000
vn -1.000000 0.000000 0.000000
vn 0.000000 0.000000 -1.000000
vn 0.000000 0.000000 -1.000000
vn 0.000000 0.000000 -1.000000
vn 0.000000 0.000000 -1.000000
vn -1.000000 0.000000 0.000000
vn -1.000000 0.000000 0.000000
vn -1.000000 0.000000 0.000000
vn -1.000000 0.000000 0.000000
vn 0.000000 0.000000 1.000000
vn 0.000000 0.000000 1.000000
vn 0.000000 0.000000 1.000000
vn 0.000000 0.000000 1.000000
s off
g TREE_01 TREE_TOP
f 9/89/25 10/90/26 12/91/27 11/92/28
f 11/57/29 12/58/30 15/59/31 14/60/32
f 13/61/33 14/62/34 18/63/35 17/64/36
f 33/65/37 34/66/38 35/67/39 36/68/40
f 15/69/41 16/70/42 20/71/43 19/72/44
f 18/73/45 19/74/46 22/75/47 21/76/48
f 21/93/49 22/94/50 24/95/51 23/96/52
s 1
f 23/77/53 24/78/54 27/79/55 26/80/56
f 25/87/57 26/80/56 30/82/58 29/88/59
f 26/80/56 27/79/55 31/81/60 30/82/58
f 27/79/55 28/83/61 32/84/62 31/81/60
f 30/82/58 31/81/60 10/85/63 9/86/64
s off
f 32/25/65 28/26/66 20/27/67 16/28/68
f 25/29/69 29/30/70 13/31/71 17/32/72
f 14/97/73 15/98/74 34/99/75 33/100/76
f 15/33/77 19/34/78 35/35/79 34/36/80
f 19/101/81 18/102/82 36/103/83 35/104/84
f 18/37/85 14/38/86 33/39/87 36/40/88
f 15/41/89 12/42/90 10/43/91 31/44/92
f 16/105/93 15/106/94 31/107/95 32/108/96
f 19/109/97 20/110/98 28/111/99 27/112/100
f 22/45/101 19/46/102 27/47/103 24/48/104
f 18/49/105 21/50/106 23/51/107 26/52/108
f 17/113/109 18/114/110 26/115/111 25/116/112
f 11/53/113 14/54/114 30/55/115 9/56/116
f 14/117/117 13/118/118 29/119/119 30/120/120
